<?xml version="1.0" encoding="UTF-8"?>
<svg id="Camada_1" data-name="Camada 1" xmlns="http://www.w3.org/2000/svg" viewBox="0 0 910.81 680.9">
  <defs>
    <style>
      .cls-1 {
        fill: #29235c;
      }
    </style>
  </defs>
  <path class="cls-1" d="m457.82,11.08c-23.13,0-42.83,14.75-50.33,35.33L122.44,81.9c-24.45,3.04-41.89,25.44-38.84,49.9,2.81,22.6,22.12,39.2,44.33,39.2,1.84,0,3.7-.11,5.57-.35l11.61-1.44-85.37,252.79c-.21.64-.38,1.27-.5,1.91H0l1.25,16.23c4.01,52.87,48.62,94.25,101.58,94.25h154.57c52.96,0,97.58-41.39,101.59-94.25l1.24-16.23h-55.22c-.13-.63-.29-1.27-.5-1.91l-88.32-261.64,188.06-23.41v436.76h-98.05c-29.55,0-53.59,24.04-53.59,53.59s24.04,53.6,53.59,53.6h303.28c29.55,0,53.6-24.05,53.6-53.6s-24.05-53.59-53.6-53.59h-98.04V123.59l182.29-22.69-83.36,246.86c-.21.63-.37,1.27-.49,1.89h-59.25l1.24,16.24c4.02,52.86,48.63,94.25,101.6,94.25h154.57c52.96,0,97.57-41.41,101.57-94.27l1.25-16.23h-55.22c-.12-.62-.3-1.26-.5-1.89l-86.48-256.19,19.76-2.47c24.47-3.04,41.9-25.44,38.86-49.9-3.05-24.46-25.46-41.93-49.9-38.85l-275.16,34.26c-9.64-14.19-25.92-23.53-44.34-23.53Zm-132.1,443.01c-9.38,29.35-37.25,50.12-68.32,50.12H102.82c-31.07,0-58.93-20.77-68.32-50.12h291.22Zm-48.69-30.19H87.2l87.24-258.34,14.78-1.85,87.81,260.19Zm332.42,176.6c14.78,0,26.8,12.03,26.8,26.8s-12.02,26.8-26.8,26.8h-303.28c-14.78,0-26.8-12.01-26.8-26.8s12.02-26.8,26.8-26.8h303.28Zm266.86-220.66c-9.38,29.36-37.25,50.12-68.31,50.12h-154.57c-31.07,0-58.94-20.76-68.33-50.12h291.21Zm-48.68-30.19h-189.83l85.24-252.41,18.61-2.32,85.99,254.73Zm-47.01-322.72c.74-.08,1.49-.14,2.23-.14,8.89,0,16.65,6.66,17.78,15.72.58,4.73-.73,9.4-3.68,13.2-2.97,3.79-7.19,6.22-11.9,6.8l-273.65,34.07-13.4,1.67-13.4,1.67v473.78h-53.59V106.6l-13.41,1.67-13.39,1.66-274.04,34.12c-4.7.59-9.4-.71-13.2-3.68-3.79-2.95-6.22-7.17-6.8-11.87-.59-4.73.71-9.42,3.67-13.22,2.95-3.79,7.18-6.22,11.91-6.8l278.46-34.67,13.39-1.67,13.41-1.67v-5.8c0-2.76.52-5.36,1.31-7.86,1.94-6.28,6.09-11.58,11.59-14.95,4.07-2.47,8.79-3.98,13.89-3.98,2.74,0,5.3.52,7.78,1.29,6.33,1.94,11.65,6.09,15.03,11.63,2.33,3.83,3.75,8.25,3.9,13.02l13.23-1.64,13.44-1.69,269.42-33.55Z"/>
</svg>